HIERARCHY
ROOT root
{
	OFFSET	0	13.1	24.9
	CHANNELS 6  Xposition Yposition Zposition Xrotation Yrotation Zrotation
	JOINT spine_1
	{
		OFFSET	0	9.99999	0
		CHANNELS 3  Xrotation Yrotation Zrotation
		JOINT spine_2
		{
			OFFSET	0	112	-10
			CHANNELS 3  Xrotation Yrotation Zrotation
			JOINT spine_3
			{
				OFFSET	0	206.5	19.3
				CHANNELS 3  Xrotation Yrotation Zrotation
				JOINT spine_4
				{
					OFFSET	0	110.4	14.6
					CHANNELS 3  Xrotation Yrotation Zrotation
					JOINT neck_1
					{
						OFFSET	0	71.8	-50.3
						CHANNELS 3  Xrotation Yrotation Zrotation
						JOINT neck_2
						{
							OFFSET	0	86.2	-25.8
							CHANNELS 3  Xrotation Yrotation Zrotation
							JOINT head_ee
							{
								OFFSET	0	179.8	-8.7
								CHANNELS 3  Xrotation Yrotation Zrotation
								End Site
								{
									OFFSET	1	0	0
								}
							}
						}
					}
					JOINT left_clavicle
					{
						OFFSET	-43.2	22.4	-70.8
						CHANNELS 3  Xrotation Yrotation Zrotation
						JOINT left_shoulder
						{
							OFFSET	-93.9	-5.79999	48.7
							CHANNELS 3  Xrotation Yrotation Zrotation
							JOINT left_elbow
							{
								OFFSET	-291.4	-30.8	15.2
								CHANNELS 3  Xrotation Yrotation Zrotation
								JOINT left_lowarm_twist
								{
									OFFSET	-110.7	-3.89999	13.6
									CHANNELS 3  Xrotation Yrotation Zrotation
									JOINT left_hand
									{
										OFFSET	-110.7	-3.89999	13.6
										CHANNELS 3  Xrotation Yrotation Zrotation
										JOINT left_ee
										{
											OFFSET	-80.8	-5.10001	12.1
											CHANNELS 3  Xrotation Yrotation Zrotation
											End Site
											{
												OFFSET	1	0	0
											}
										}
									}
								}
							}
						}
					}
					JOINT right_clavicle
					{
						OFFSET	43.2	22.4	-70.8
						CHANNELS 3  Xrotation Yrotation Zrotation
						JOINT right_shoulder
						{
							OFFSET	93.9	-5.79999	48.7
							CHANNELS 3  Xrotation Yrotation Zrotation
							JOINT right_elbow
							{
								OFFSET	291.4	-30.8	15.2
								CHANNELS 3  Xrotation Yrotation Zrotation
								JOINT right_lowarm_twist
								{
									OFFSET	110.7	-3.89999	13.6
									CHANNELS 3  Xrotation Yrotation Zrotation
									JOINT right_hand
									{
										OFFSET	110.7	-3.89999	13.6
										CHANNELS 3  Xrotation Yrotation Zrotation
										JOINT right_ee
										{
											OFFSET	80.8	-5.10001	12.1
											CHANNELS 3  Xrotation Yrotation Zrotation
											End Site
											{
												OFFSET	1	0	0
											}
										}
									}
								}
							}
						}
					}
				}
			}
		}
	}
	JOINT left_hip
	{
		OFFSET	-82.8	-127.5	0.300001
		CHANNELS 3  Xrotation Yrotation Zrotation
		JOINT left_knee
		{
			OFFSET	-28.2	-396.7	2.2
			CHANNELS 3  Xrotation Yrotation Zrotation
			JOINT left_ankle
			{
				OFFSET	-11.7	-411.3	35.4
				CHANNELS 3  Xrotation Yrotation Zrotation
				JOINT left_toes
				{
					OFFSET	0	-60	-88.6
					CHANNELS 3  Xrotation Yrotation Zrotation
					JOINT left_foot_ee
					{
						OFFSET	-22.5	-16.5	-42.2
						CHANNELS 3  Xrotation Yrotation Zrotation
						End Site
						{
							OFFSET	1	0	0
						}
					}
				}
			}
		}
	}
	JOINT right_hip
	{
		OFFSET	82.8	-127.5	0.300001
		CHANNELS 3  Xrotation Yrotation Zrotation
		JOINT right_knee
		{
			OFFSET	28.2	-396.7	2.2
			CHANNELS 3  Xrotation Yrotation Zrotation
			JOINT right_ankle
			{
				OFFSET	11.7	-411.3	35.4
				CHANNELS 3  Xrotation Yrotation Zrotation
				JOINT right_toes
				{
					OFFSET	0	-60	-88.6
					CHANNELS 3  Xrotation Yrotation Zrotation
					JOINT right_foot_ee
					{
						OFFSET	22.5	-16.5	-42.2
						CHANNELS 3  Xrotation Yrotation Zrotation
						End Site
						{
							OFFSET	1	0	0
						}
					}
				}
			}
		}
	}
}
MOTION
Frames: 8
Frame Time: 0.02
2964.26459734 693.548 -1915.05964506 -8.86549116204 27.5457786316 11.0138457097 5.53646 -0.189115 -2.19348 5.53913 -0.0491893 -2.20106 5.53835 0.203991 -2.19215 5.53168 -0.144691 -2.19685 -18.6243 -1.68907 4.23232 -18.6141 -5.50385 3.28265 -0.0 0.0 -0.0 6.37755 -2.83502 12.3176 -4.61335 -23.8285 67.8558 0.820925 -22.1296 0.160538 -21.4208 -1.22493 2.4338 3.59959 27.533 32.5898 -0.0 0.0 -0.0 2.57957 8.58246 -4.2812 -19.7747 25.61 -77.3 0.242242 6.84292 -0.0144829 -79.2463 7.72614 -5.28926 -5.59427 -9.39302 34.2591 0.0 0.0 0.0 27.0603 -15.9839 0.840832 -26.3678 0.165962 4.00743 33.7289 24.4825 -4.51143 -15.2285 0.0 0.0 -0.0 0.0 -0.0 33.9367 10.305 -9.12022 -63.0606 2.53938 -8.85375 6.48875 -21.0723 0.957357 21.4702 -0.0 -0.0 0.0 0.0 0.0 
2938.01736757 695.857 -1912.70832222 -8.51640331041 28.9198162509 10.2340079376 5.29111 -0.229975 -2.10507 5.29357 -0.0955882 -2.11543 5.29479 0.157006 -2.11176 5.28861 -0.178402 -2.11006 -18.6598 -1.37249 4.39235 -18.6387 -4.97716 3.55536 -0.0 0.0 -0.0 6.5348 -3.89037 12.6133 -1.89872 -24.2748 67.6422 0.959648 -25.4251 0.216492 -21.3144 -1.21666 2.42297 3.6126 27.2958 32.6459 -0.0 0.0 -0.0 2.6268 8.09757 -4.41958 -20.0781 25.5338 -77.2166 0.204966 5.79776 -0.0103791 -79.2554 7.72729 -5.28915 -5.59571 -9.68336 34.0579 0.0 0.0 0.0 26.5995 -15.7517 1.15374 -25.768 0.182763 3.9169 34.3355 24.3408 -4.57291 -15.619 0.0 0.0 -0.0 0.0 -0.0 38.4457 9.14825 -8.32052 -63.0217 2.53495 -8.84969 5.61888 -20.6213 0.829571 21.1736 -0.0 -0.0 0.0 0.0 0.0 
2934.0420743 695.857 -1908.74034041 -8.59544382148 29.8526902392 10.3950813105 5.29111 -0.229975 -2.10507 5.29357 -0.0955882 -2.11543 5.29479 0.157006 -2.11176 5.28861 -0.178402 -2.11006 -18.6598 -1.37249 4.39235 -18.6387 -4.97716 3.55536 -0.0 0.0 -0.0 6.5348 -3.89037 12.6133 -1.89872 -24.2748 67.6422 0.959648 -25.4251 0.216492 -21.3144 -1.21666 2.42297 3.6126 27.2958 32.6459 -0.0 0.0 -0.0 2.6268 8.09757 -4.41958 -20.0781 25.5338 -77.2166 0.204966 5.79776 -0.0103791 -79.2554 7.72729 -5.28915 -5.59571 -9.68336 34.0579 0.0 0.0 0.0 26.5995 -15.7517 1.15374 -25.768 0.182763 3.9169 34.3355 24.3408 -4.57291 -15.619 0.0 0.0 -0.0 0.0 -0.0 38.4457 9.14825 -8.32052 -63.0217 2.53495 -8.84969 5.61888 -20.6213 0.829571 21.1736 -0.0 -0.0 0.0 0.0 0.0 
2918.72169079 702.231 -1898.36345111 -10.5263776383 33.2969503542 11.9728041537 5.27157 -0.374188 -2.04638 5.27387 -0.243242 -2.06603 5.28047 0.00493875 -2.08028 5.27458 -0.323595 -2.05498 -18.1611 -1.07315 4.09103 -18.1375 -4.2747 3.4065 -0.0 0.0 -0.0 7.01779 -3.17837 13.608 -1.0878 -24.1901 64.8623 1.16704 -30.0319 0.313067 -23.4889 -1.38968 2.64129 3.57866 24.5585 31.9865 -0.0 0.0 -0.0 2.25132 5.81516 -3.85192 -20.3672 26.0426 -76.5622 0.299697 8.4447 -0.022126 -79.1455 7.71333 -5.29043 -5.50263 -11.4882 32.0116 0.0 0.0 0.0 25.5391 -15.2287 1.65437 -22.1057 0.264682 3.36096 34.4969 23.5372 -4.56906 -16.3967 0.0 0.0 -0.0 0.0 -0.0 43.3901 7.59002 -7.90858 -61.442 2.35769 -8.68236 4.37707 -21.0719 0.649552 20.8918 -0.0 -0.0 0.0 0.0 0.0 
2847.82438154 699.241 -1906.62815868 -15.2786801631 37.4295246099 13.6164630549 5.56996 -0.420417 -1.53941 5.57122 -0.321621 -1.56303 5.57867 -0.141193 -1.58951 5.57535 -0.390425 -1.54728 -15.507 3.25837 3.94085 -15.4766 3.93161 4.81616 -0.0 0.0 -0.0 8.21787 -1.75079 16.0522 2.32517 -19.7993 58.9263 1.78908 -41.5454 0.678681 -32.2126 -2.16358 3.44715 2.82102 19.5562 25.7125 -0.0 0.0 -0.0 1.90904 -0.290415 -3.70231 -21.2076 23.9711 -75.8595 0.183286 5.18805 -0.00830382 -77.7524 7.53606 -5.30436 -5.83269 -18.9807 28.6884 0.0 0.0 0.0 21.6211 -13.0185 4.24136 -13.6193 0.317075 2.06111 36.1104 20.4762 -4.66344 -17.343 0.0 0.0 -0.0 0.0 -0.0 54.2093 -0.77016 -5.48425 -49.3002 1.16177 -7.24725 -4.14353 -23.3114 -0.632683 20.1294 -0.0 -0.0 0.0 0.0 0.0 
2844.17811581 699.241 -1901.48697868 -15.4620260023 38.2875638176 13.9152022217 5.56996 -0.420417 -1.53941 5.57122 -0.321621 -1.56303 5.57867 -0.141193 -1.58951 5.57535 -0.390425 -1.54728 -15.507 3.25837 3.94085 -15.4766 3.93161 4.81616 -0.0 0.0 -0.0 8.21787 -1.75079 16.0522 2.32517 -19.7993 58.9263 1.78908 -41.5454 0.678681 -32.2126 -2.16358 3.44715 2.82102 19.5562 25.7125 -0.0 0.0 -0.0 1.90904 -0.290415 -3.70231 -21.2076 23.9711 -75.8595 0.183286 5.18805 -0.00830382 -77.7524 7.53606 -5.30436 -5.83269 -18.9807 28.6884 0.0 0.0 0.0 21.6211 -13.0185 4.24136 -13.6193 0.317075 2.06111 36.1104 20.4762 -4.66344 -17.343 0.0 0.0 -0.0 0.0 -0.0 54.2093 -0.77016 -5.48425 -49.3002 1.16177 -7.24725 -4.14353 -23.3114 -0.632683 20.1294 -0.0 -0.0 0.0 0.0 0.0 
2842.5038998 699.241 -1899.0684487 -15.5502985173 38.6877307213 14.0570396626 5.56996 -0.420417 -1.53941 5.57122 -0.321621 -1.56303 5.57867 -0.141193 -1.58951 5.57535 -0.390425 -1.54728 -15.507 3.25837 3.94085 -15.4766 3.93161 4.81616 -0.0 0.0 -0.0 8.21787 -1.75079 16.0522 2.32517 -19.7993 58.9263 1.78908 -41.5454 0.678681 -32.2126 -2.16358 3.44715 2.82102 19.5562 25.7125 -0.0 0.0 -0.0 1.90904 -0.290415 -3.70231 -21.2076 23.9711 -75.8595 0.183286 5.18805 -0.00830382 -77.7524 7.53606 -5.30436 -5.83269 -18.9807 28.6884 0.0 0.0 0.0 21.6211 -13.0185 4.24136 -13.6193 0.317075 2.06111 36.1104 20.4762 -4.66344 -17.343 0.0 0.0 -0.0 0.0 -0.0 54.2093 -0.77016 -5.48425 -49.3002 1.16177 -7.24725 -4.14353 -23.3114 -0.632683 20.1294 -0.0 -0.0 0.0 0.0 0.0 
2827.5210223 695.319 -1905.55698962 -15.7239579865 38.2308856381 13.4175239724 5.55466 -0.49603 -1.49082 5.55581 -0.400172 -1.51935 5.56521 -0.223877 -1.55513 5.56213 -0.466643 -1.50028 -14.5824 4.02565 3.574 -14.5706 5.54348 4.68362 -0.0 0.0 -0.0 8.4031 -1.187 16.4216 3.01241 -19.033 58.2693 1.91745 -43.5221 0.765476 -34.163 -2.35286 3.61071 2.50852 19.7444 23.6718 -0.0 0.0 -0.0 1.89657 -1.91151 -3.81557 -22.2069 23.6112 -75.4961 0.147233 4.17158 -0.00536217 -77.6249 7.51982 -5.30542 -5.98969 -20.3535 28.6706 0.0 0.0 0.0 20.2641 -12.4753 5.65456 -12.1802 0.306849 1.84055 37.2706 19.6685 -4.76135 -16.8753 0.0 0.0 -0.0 0.0 -0.0 55.7435 -1.06429 -5.5017 -45.2801 0.836389 -6.72107 -6.9795 -24.5792 -1.07731 19.6247 -0.0 -0.0 0.0 0.0 0.0 
